# xmcd
#
# Track frame offsets:
#	150
#	23945
#	33279
#	58439
#	78244
#	90365
#	126619
#	149167
#	161606
#	183891
#
# Disc length: 2569 seconds
#
# Revision: 0
# Processed by: cddbd v1.5.2PL0 Copyright (c) Steve Scherf et al.
# Submitted via: audiograbber 1.83.01
#
DISCID=890a070a
DTITLE=James brown - The Silver Collection
DYEAR=2000
DGENRE=Soul
TTITLE0=Get Up
TTITLE1=Papa´s got a brand new Bag
TTITLE2=It´s too funky in here
TTITLE3=georgia on my mind
TTITLE4=nature boy
TTITLE5=body heat
TTITLE6=super bad
TTITLE7=think
TTITLE8=try me
TTITLE9=mona lisa
EXTD=
EXTT0=
EXTT1=
EXTT2=
EXTT3=
EXTT4=
EXTT5=
EXTT6=
EXTT7=
EXTT8=
EXTT9=
PLAYORDER=
